# xmcd
#
# Track frame offsets: 
#        150
#        14501
#        30555
#        42230
#        56581
#        72270
#        83702
#        98053
#        114107
#        128458
#        139890
#        151565
#
# Disc length: 2230 seconds
#
# Revision: 1
# Processed by: cddbd v1.5.2PL0 Copyright (c) Steve Scherf et al.
# Submitted via: ExactAudioCopyFreeDBPlugin 1.0
#
DISCID=8a08b40c
DTITLE=アゴアニキ - アゴ　ア　ゴーゴー
DYEAR=2008
DGENRE=VOCALOID
TTITLE0=HAKOBAKO PLAYER
TTITLE1=方向音痴
TTITLE2=河原町行き
TTITLE3=サルでもわかる
TTITLE4=まぶしい人
TTITLE5=よっこらせっくす
TTITLE6=HAKOBAKO PLAYER　カラオケバージョン
TTITLE7=方向音痴　カラオケバージョン
TTITLE8=サルでもわかる　カラオケバージョン
TTITLE9=よっこらせっくす　カラオケバージョン
TTITLE10=河原町行き　カラオケバージョン
TTITLE11=まぶしい人　カラオケバージョン
EXTD=YEAR: 2008
EXTT0=
EXTT1=
EXTT2=
EXTT3=
EXTT4=
EXTT5=
EXTT6=
EXTT7=
EXTT8=
EXTT9=
EXTT10=
EXTT11=
PLAYORDER=
